<svg width="512" height="512" viewBox="0 0 512 512" fill="none" xmlns="http://www.w3.org/2000/svg">
<g clip-path="url(#clip0_1_41)">
<path fill-rule="evenodd" clip-rule="evenodd" d="M256 331.686C244.484 331.686 233.227 328.272 223.652 321.874C214.076 315.476 206.613 306.382 202.206 295.743C197.799 285.104 196.646 273.397 198.893 262.102C201.139 250.807 206.685 240.433 214.828 232.29C222.971 224.147 233.345 218.601 244.64 216.355C255.935 214.108 267.642 215.261 278.281 219.668C288.92 224.075 298.014 231.538 304.412 241.114C310.809 250.689 314.224 261.946 314.224 273.462C314.191 288.894 308.046 303.684 297.134 314.596C286.222 325.508 271.432 331.653 256 331.686ZM349.969 502.872C352.448 502.873 354.904 502.385 357.195 501.437C359.486 500.488 361.567 499.098 363.321 497.344C365.074 495.591 366.465 493.51 367.413 491.219C368.362 488.928 368.85 486.473 368.849 483.993V428.972C368.849 406.663 358.899 386.423 342.883 371.772C325.994 356.539 304.027 348.158 281.283 348.272H230.713C207.97 348.163 186.005 356.543 169.113 371.772C153.097 386.427 143.176 406.672 143.176 428.972V483.993C143.174 488.996 145.159 493.794 148.693 497.334C152.228 500.874 157.023 502.866 162.026 502.872H192.613V428.972C192.613 427.115 193.35 425.335 194.663 424.022C195.976 422.71 197.756 421.972 199.613 421.972C201.469 421.972 203.25 422.71 204.563 424.022C205.875 425.335 206.613 427.115 206.613 428.972V502.872H305.373V428.972C305.373 427.115 306.11 425.335 307.423 424.022C308.736 422.71 310.516 421.972 312.373 421.972C314.229 421.972 316.01 422.71 317.323 424.022C318.635 425.335 319.373 427.115 319.373 428.972V502.872H349.969ZM282.334 150.437V106.637C282.334 99.6528 279.559 92.9546 274.621 88.0161C269.682 83.0775 262.984 80.303 256 80.303C249.016 80.303 242.318 83.0775 237.379 88.0161C232.44 92.9546 229.666 99.6528 229.666 106.637V150.437H282.334ZM457.886 296.737C456.348 296.73 454.823 297.03 453.402 297.619C451.981 298.208 450.692 299.074 449.609 300.167L446.037 303.739C444.125 305.644 441.536 306.714 438.837 306.714C436.138 306.714 433.549 305.644 431.637 303.739L428.065 300.167C425.864 297.978 422.885 296.752 419.78 296.756C416.676 296.761 413.701 297.996 411.506 300.191C409.311 302.386 408.076 305.361 408.071 308.465C408.067 311.57 409.293 314.549 411.482 316.75L438.837 344.1L466.191 316.745C468.388 314.545 469.622 311.563 469.622 308.453C469.622 305.344 468.388 302.362 466.191 300.162C465.101 299.071 463.806 298.207 462.381 297.618C460.956 297.03 459.428 296.73 457.886 296.734V296.737ZM512 321.2C512.001 338.128 506.132 354.533 495.394 367.619C484.655 380.705 469.712 389.663 453.109 392.966C436.507 396.269 419.272 393.713 404.343 385.734C389.413 377.754 377.713 364.845 371.234 349.206C364.756 333.567 363.901 316.165 368.814 299.966C373.728 283.767 384.106 269.772 398.181 260.368C412.257 250.963 429.157 246.729 446.004 248.389C462.85 250.048 478.6 257.497 490.57 269.467C497.375 276.253 502.771 284.316 506.449 293.195C510.126 302.073 512.013 311.59 512 321.2ZM483.6 308.444C483.599 303.361 482.091 298.392 479.268 294.164C476.444 289.937 472.431 286.642 467.735 284.694C463.04 282.747 457.873 282.235 452.886 283.222C447.9 284.21 443.318 286.654 439.719 290.244L438.841 291.123L437.962 290.244C433.135 285.421 426.59 282.713 419.767 282.716C412.943 282.719 406.4 285.433 401.577 290.259C396.755 295.086 394.047 301.632 394.05 308.455C394.053 315.278 396.766 321.821 401.593 326.644L431.641 356.692C433.553 358.597 436.142 359.667 438.841 359.667C441.54 359.667 444.129 358.597 446.041 356.692L476.089 326.644C478.478 324.254 480.371 321.416 481.66 318.292C482.948 315.168 483.608 311.821 483.6 308.442V308.444ZM146.355 321.2C146.356 338.129 140.488 354.534 129.749 367.621C119.011 380.707 104.067 389.666 87.4641 392.969C70.8611 396.273 53.6262 393.717 38.6962 385.738C23.7662 377.759 12.0648 364.849 5.58586 349.21C-0.893051 333.57 -1.7486 316.168 3.16499 299.968C8.07858 283.768 18.4573 269.773 32.5326 260.368C46.608 250.963 63.5091 246.729 80.3561 248.388C97.2032 250.047 112.954 257.497 124.924 269.467C131.729 276.253 137.125 284.316 140.803 293.194C144.481 302.073 146.368 311.59 146.355 321.2ZM117.696 321.2C117.692 316.856 115.965 312.691 112.893 309.619C109.821 306.547 105.656 304.819 101.312 304.815H89.548V293.049C89.5142 288.726 87.7731 284.591 84.7041 281.546C81.635 278.501 77.4869 276.792 73.1635 276.792C68.8401 276.792 64.6919 278.501 61.6229 281.546C58.5538 284.591 56.8127 288.726 56.779 293.049V304.813H45.043C42.8806 304.796 40.7362 305.207 38.7335 306.023C36.7308 306.839 34.9094 308.043 33.3744 309.566C31.8393 311.09 30.6209 312.901 29.7895 314.898C28.958 316.894 28.53 319.035 28.53 321.198C28.53 323.36 28.958 325.501 29.7895 327.497C30.6209 329.494 31.8393 331.305 33.3744 332.829C34.9094 334.352 36.7308 335.556 38.7335 336.372C40.7362 337.188 42.8806 337.599 45.043 337.582H56.779V349.346C56.8127 353.669 58.5538 357.804 61.6229 360.849C64.6919 363.894 68.8401 365.603 73.1635 365.603C77.4869 365.603 81.635 363.894 84.7041 360.849C87.7731 357.804 89.5142 353.669 89.548 349.346V337.582H101.312C103.465 337.586 105.597 337.165 107.587 336.344C109.577 335.522 111.385 334.316 112.907 332.794C114.43 331.272 115.637 329.464 116.459 327.475C117.282 325.485 117.703 323.353 117.7 321.2H117.696ZM158.005 154.15C158.006 171.078 152.137 187.482 141.399 200.568C130.661 213.654 115.717 222.611 99.1149 225.914C82.5125 229.217 65.2785 226.662 50.3493 218.682C35.4201 210.703 23.7195 197.794 17.2412 182.155C10.7628 166.516 9.90757 149.115 14.8211 132.916C19.7347 116.717 30.1131 102.723 44.1879 93.3181C58.2627 83.9134 75.163 79.6799 92.0093 81.3391C108.856 82.9982 124.605 90.4472 136.575 102.417C143.377 109.205 148.771 117.269 152.448 126.147C156.126 135.024 158.014 144.541 158.005 154.15ZM107.69 170.024C107.686 163.963 105.278 158.151 100.995 153.862C96.7121 149.574 90.903 147.159 84.842 147.148C83.2183 147.15 81.6254 146.705 80.237 145.864C78.8487 145.022 77.7183 143.815 76.9694 142.374C76.2204 140.933 75.8816 139.315 75.9899 137.695C76.0983 136.075 76.6496 134.515 77.5838 133.187C78.5179 131.859 79.799 130.814 81.287 130.164C82.7751 129.514 84.4131 129.286 86.022 129.504C87.631 129.722 89.1491 130.378 90.4107 131.4C91.6723 132.422 92.6289 133.771 93.176 135.3C93.4812 136.165 93.954 136.962 94.5672 137.645C95.1804 138.328 95.9221 138.883 96.75 139.279C97.5778 139.675 98.4755 139.905 99.392 139.954C100.308 140.003 101.225 139.871 102.091 139.566C102.956 139.261 103.753 138.788 104.436 138.175C105.119 137.562 105.674 136.82 106.07 135.992C106.466 135.164 106.696 134.266 106.745 133.35C106.794 132.434 106.662 131.516 106.357 130.651C104.767 126.197 101.835 122.344 97.966 119.624C96.0929 118.298 94.0285 117.266 91.844 116.563V110.5C91.844 108.643 91.1065 106.863 89.7937 105.55C88.481 104.237 86.7005 103.5 84.844 103.5C82.9875 103.5 81.207 104.237 79.8942 105.55C78.5815 106.863 77.844 108.643 77.844 110.5V116.566C72.6606 118.234 68.2434 121.698 65.3886 126.335C62.5338 130.972 61.429 136.476 62.2735 141.855C63.118 147.234 65.8561 152.135 69.9943 155.674C74.1326 159.212 79.3989 161.157 84.844 161.156C86.4678 161.154 88.0609 161.599 89.4492 162.441C90.8376 163.283 91.9679 164.491 92.7167 165.931C93.4655 167.372 93.804 168.991 93.6953 170.611C93.5866 172.232 93.0348 173.791 92.1002 175.119C91.1656 176.446 89.8841 177.492 88.3957 178.141C86.9072 178.79 85.2691 179.018 83.66 178.799C82.051 178.581 80.533 177.924 79.2717 176.901C78.0104 175.879 77.0544 174.529 76.508 173C76.2196 172.109 75.7553 171.285 75.1426 170.576C74.5299 169.868 73.7812 169.289 72.9409 168.875C72.1007 168.462 71.1859 168.221 70.2507 168.167C69.3156 168.113 68.3792 168.247 67.4969 168.562C66.6147 168.876 65.8045 169.365 65.1145 169.998C64.4244 170.632 63.8685 171.397 63.4797 172.249C63.0908 173.101 62.877 174.023 62.8507 174.959C62.8245 175.895 62.9864 176.827 63.327 177.7C64.9146 182.14 67.8351 185.982 71.689 188.7C73.5755 190.021 75.6487 191.053 77.84 191.761V197.827C77.84 199.684 78.5775 201.464 79.8902 202.777C81.203 204.09 82.9835 204.827 84.84 204.827C86.6965 204.827 88.477 204.09 89.7897 202.777C91.1025 201.464 91.84 199.684 91.84 197.827V191.761C96.4445 190.284 100.461 187.382 103.309 183.474C106.157 179.566 107.69 174.855 107.686 170.019L107.69 170.024ZM262.406 11.169C260.534 9.84126 258.295 9.12808 256 9.12808C253.705 9.12808 251.466 9.84126 249.594 11.169L222.664 29.538L195.706 47.906L195.621 47.963L168.777 66.275C168.009 66.788 167.351 67.4482 166.84 68.2173C166.329 68.9864 165.975 69.8491 165.8 70.7556C165.624 71.6622 165.63 72.5945 165.817 73.4987C166.005 74.403 166.369 75.2611 166.89 76.0236C167.411 76.7861 168.077 77.4378 168.852 77.9409C169.626 78.4441 170.492 78.7888 171.4 78.9552C172.309 79.1215 173.241 79.1061 174.143 78.9098C175.045 78.7136 175.9 78.3405 176.657 77.812L190.179 68.6V137.6C190.165 140.76 191.269 143.823 193.297 146.246C194.371 147.554 195.721 148.608 197.25 149.334C198.778 150.06 200.449 150.44 202.141 150.446H215.662V106.646C215.715 95.9826 219.988 85.7741 227.547 78.2526C235.106 70.7312 245.336 66.5088 255.999 66.5088C266.663 66.5088 276.893 70.7312 284.452 78.2526C292.011 85.7741 296.284 95.9826 296.337 106.646V150.446H309.887C311.576 150.443 313.243 150.064 314.767 149.338C316.292 148.611 317.636 147.555 318.703 146.246C320.731 143.823 321.835 140.76 321.821 137.6V68.6L335.343 77.812C336.1 78.3405 336.955 78.7136 337.857 78.9098C338.759 79.1061 339.691 79.1215 340.6 78.9552C341.508 78.7888 342.374 78.4441 343.148 77.9409C343.923 77.4378 344.589 76.7861 345.11 76.0236C345.631 75.2611 345.995 74.403 346.182 73.4987C346.37 72.5945 346.376 71.6622 346.2 70.7556C346.025 69.8491 345.671 68.9864 345.16 68.2173C344.649 67.4482 343.991 66.788 343.223 66.275L316.379 47.963L316.294 47.906L262.406 11.169ZM454.116 130.169H400.2C399.286 130.18 398.412 130.546 397.762 131.189C397.115 131.836 396.748 132.712 396.742 133.627V143.35H398.414C400.269 143.354 402.047 144.093 403.359 145.405C404.671 146.717 405.409 148.495 405.414 150.35V178.16H448.926V150.352C448.93 148.497 449.669 146.719 450.981 145.407C452.293 144.095 454.071 143.356 455.926 143.352H457.57V133.629C457.573 133.175 457.485 132.725 457.309 132.306C457.134 131.887 456.876 131.507 456.55 131.191C456.232 130.868 455.853 130.612 455.435 130.436C455.018 130.261 454.569 130.17 454.116 130.169ZM500.349 154.15C500.35 171.078 494.481 187.482 483.743 200.568C473.005 213.654 458.061 222.611 441.459 225.914C424.857 229.217 407.622 226.662 392.693 218.682C377.764 210.703 366.064 197.794 359.585 182.155C353.107 166.516 352.252 149.115 357.165 132.916C362.079 116.717 372.457 102.723 386.532 93.3181C400.607 83.9134 417.507 79.6799 434.353 81.3391C451.199 82.9982 466.949 90.4472 478.919 102.417C485.721 109.205 491.115 117.269 494.792 126.147C498.47 135.024 500.358 144.541 500.349 154.15ZM471.577 133.627C471.575 128.997 469.735 124.556 466.461 121.282C463.187 118.008 458.746 116.167 454.116 116.165H400.2C395.573 116.18 391.141 118.025 387.869 121.296C384.598 124.568 382.753 129 382.738 133.627V143.747C382.742 145.529 383.097 147.292 383.784 148.936C384.47 150.58 385.474 152.072 386.738 153.328L386.767 153.356C388.095 154.678 389.676 155.72 391.416 156.418V180.286C391.426 183.411 392.669 186.406 394.874 188.62L394.93 188.676C396.025 189.78 397.328 190.657 398.763 191.255C400.198 191.854 401.738 192.162 403.293 192.163H451.057C453.934 192.161 456.71 191.102 458.857 189.187L459.457 188.676C460.562 187.576 461.438 186.268 462.036 184.828C462.635 183.389 462.943 181.845 462.944 180.286V156.386C464.673 155.713 466.246 154.692 467.564 153.386L467.593 153.329C468.857 152.073 469.861 150.581 470.547 148.937C471.233 147.293 471.589 145.53 471.593 143.748L471.577 133.627ZM249 190.831C249 192.688 249.737 194.468 251.05 195.781C252.363 197.094 254.143 197.831 256 197.831C257.856 197.831 259.637 197.094 260.95 195.781C262.262 194.468 263 192.688 263 190.831V166.931C263 165.074 262.262 163.294 260.95 161.981C259.637 160.668 257.856 159.931 256 159.931C254.143 159.931 252.363 160.668 251.05 161.981C249.737 163.294 249 165.074 249 166.931V190.831ZM316.948 210.39C315.385 211.339 314.255 212.862 313.802 214.634C313.349 216.406 313.608 218.284 314.524 219.867C315.44 221.45 316.939 222.611 318.701 223.101C320.462 223.592 322.346 223.372 323.948 222.49L353.656 205.34C354.477 204.894 355.2 204.289 355.783 203.559C356.366 202.829 356.796 201.989 357.05 201.09C357.303 200.191 357.373 199.25 357.257 198.324C357.14 197.397 356.839 196.503 356.371 195.694C355.904 194.886 355.279 194.179 354.533 193.616C353.788 193.053 352.937 192.645 352.032 192.417C351.126 192.188 350.184 192.143 349.26 192.284C348.337 192.426 347.452 192.751 346.656 193.24L316.948 210.39ZM331.915 291.519C331.025 291.27 330.095 291.2 329.177 291.314C328.26 291.427 327.375 291.721 326.572 292.179C325.77 292.637 325.066 293.25 324.502 293.982C323.938 294.714 323.525 295.551 323.287 296.444C323.049 297.337 322.99 298.268 323.114 299.184C323.239 300.099 323.544 300.981 324.011 301.778C324.479 302.575 325.1 303.271 325.839 303.826C326.578 304.382 327.419 304.785 328.315 305.012L351.446 311.22C353.228 311.679 355.119 311.416 356.709 310.489C358.298 309.562 359.458 308.045 359.935 306.268C360.413 304.491 360.171 302.597 359.26 300.998C358.35 299.398 356.846 298.223 355.074 297.726L331.915 291.519ZM183.687 305.012C184.583 304.785 185.424 304.382 186.163 303.826C186.902 303.271 187.523 302.575 187.991 301.778C188.458 300.981 188.763 300.099 188.887 299.184C189.012 298.268 188.953 297.337 188.715 296.444C188.477 295.551 188.064 294.714 187.5 293.982C186.936 293.25 186.232 292.637 185.43 292.179C184.627 291.721 183.742 291.427 182.824 291.314C181.907 291.2 180.977 291.27 180.087 291.519L156.956 297.726C156.068 297.961 155.235 298.368 154.505 298.925C153.775 299.482 153.161 300.178 152.7 300.972C152.239 301.766 151.939 302.644 151.818 303.554C151.697 304.465 151.756 305.39 151.993 306.277C152.23 307.165 152.639 307.997 153.198 308.726C153.756 309.454 154.454 310.066 155.249 310.525C156.044 310.984 156.923 311.282 157.833 311.401C158.744 311.52 159.669 311.459 160.556 311.22L183.687 305.012ZM188.053 222.494C188.848 222.977 189.732 223.296 190.652 223.433C191.573 223.569 192.511 223.521 193.413 223.29C194.314 223.06 195.16 222.652 195.902 222.09C196.644 221.528 197.266 220.824 197.731 220.018C198.197 219.213 198.498 218.323 198.615 217.4C198.733 216.477 198.665 215.54 198.415 214.643C198.166 213.747 197.74 212.909 197.162 212.18C196.585 211.45 195.868 210.843 195.053 210.394L165.346 193.244C163.745 192.375 161.868 192.164 160.114 192.658C158.361 193.152 156.869 194.31 155.957 195.887C155.045 197.464 154.784 199.335 155.23 201.101C155.676 202.867 156.794 204.39 158.346 205.344L188.053 222.494Z" fill="#1ED36A"/>
</g>
<defs>
<clipPath id="clip0_1_41">
<rect width="512" height="512" fill="white"/>
</clipPath>
</defs>
</svg>
