<svg width="512" height="512" viewBox="0 0 512 512" fill="none" xmlns="http://www.w3.org/2000/svg">
<path d="M462.213 246.719V197.119C462.213 99.919 386.213 31.999 277.493 31.999C228.521 32.0595 181.572 51.5404 146.943 86.1691C112.315 120.798 92.8338 167.747 92.7733 216.719V233.439L56.1333 277.599C52.8487 281.658 50.7737 286.56 50.146 291.743C49.5184 296.927 50.3634 302.182 52.5843 306.908C54.8052 311.633 58.3122 315.637 62.7036 318.462C67.095 321.286 72.1931 322.817 77.4141 322.878L92.773 322.879V363.999C92.7858 373.925 96.7345 383.44 103.753 390.459C110.772 397.477 120.287 401.426 130.213 401.439H159.653C162.75 401.442 165.718 402.674 167.908 404.864C170.098 407.053 171.329 410.022 171.333 413.119V471.999C171.329 473.05 171.534 474.092 171.935 475.065C172.335 476.037 172.924 476.92 173.668 477.664C174.412 478.407 175.295 478.996 176.267 479.397C177.239 479.798 178.281 480.002 179.333 479.999H423.653C425.007 479.986 426.335 479.632 427.516 478.97C428.697 478.308 429.692 477.359 430.41 476.211C431.127 475.063 431.544 473.753 431.621 472.401C431.698 471.05 431.434 469.701 430.852 468.478L386.213 377.278C409.35 364.244 428.59 345.274 441.95 322.323C455.31 299.373 462.305 273.274 462.213 246.719ZM381.573 234.719C367.965 249.374 351.215 260.758 332.58 268.017C313.945 275.277 293.909 278.223 273.973 276.636C210.629 278.445 134.301 198.04 144.135 135.837C144.378 134.107 145.183 132.505 146.426 131.276C147.669 130.048 149.28 129.262 151.013 129.039C178.373 125.359 210.773 136.959 238.293 159.759C241.653 124.239 256.373 93.1189 278.373 76.3189C279.752 75.231 281.457 74.6393 283.213 74.6393C284.969 74.6393 286.675 75.231 288.053 76.3189C310.133 93.1989 324.853 124.559 328.053 160.239C355.813 137.119 388.453 125.279 415.973 129.039C417.692 129.278 419.286 130.072 420.513 131.299C421.74 132.526 422.534 134.12 422.773 135.839C427.013 167.199 411.253 205.039 381.573 234.719Z" fill="#1ED36A"/>
<path d="M302.532 259.997C351.431 255.193 410.296 192.553 407.413 144.399C382.453 143.839 352.373 157.759 328.613 181.439C328.326 209.704 319.207 237.172 302.532 259.997Z" fill="#1ED36A"/>
<path d="M159.495 144.397C156.617 192.168 215.139 255.046 263.813 259.839C247.078 236.863 237.957 209.223 237.733 180.799C213.893 157.439 184.133 143.759 159.495 144.397Z" fill="#1ED36A"/>
<path d="M283.173 93.1987C265.093 110.479 253.573 141.839 253.574 175.359C253.653 208.772 264.83 240.474 283.173 257.599C301.013 240.799 312.213 210.879 312.693 177.919C313.577 144.177 301.748 110.73 283.173 93.1987Z" fill="#1ED36A"/>
</svg>
