<svg width="120" height="120" viewBox="0 0 120 120" fill="none" xmlns="http://www.w3.org/2000/svg">
<g filter="url(#filter0_i_2192_658)">
<path d="M108.75 65.6251H103.125V54.3751H108.75C110.242 54.3751 111.673 53.7825 112.727 52.7276C113.782 51.6727 114.375 50.242 114.375 48.7501C114.375 47.2583 113.782 45.8275 112.727 44.7726C111.673 43.7178 110.242 43.1251 108.75 43.1251H103.125V26.2501C103.125 23.7637 102.137 21.3792 100.379 19.621C98.621 17.8628 96.2364 16.8751 93.75 16.8751H76.875V11.2501C76.875 9.75828 76.2824 8.32754 75.2275 7.27265C74.1726 6.21775 72.7418 5.62512 71.25 5.62512C69.7582 5.62512 68.3274 6.21775 67.2725 7.27265C66.2176 8.32754 65.625 9.75828 65.625 11.2501V16.8751H54.375V11.2501C54.375 9.75828 53.7824 8.32754 52.7275 7.27265C51.6726 6.21775 50.2418 5.62512 48.75 5.62512C47.2582 5.62512 45.8274 6.21775 44.7725 7.27265C43.7176 8.32754 43.125 9.75828 43.125 11.2501V16.8751H26.25C23.7636 16.8751 21.379 17.8628 19.6209 19.621C17.8627 21.3792 16.875 23.7637 16.875 26.2501V43.1251H11.25C9.75816 43.1251 8.32742 43.7178 7.27252 44.7726C6.21763 45.8275 5.625 47.2583 5.625 48.7501C5.625 50.242 6.21763 51.6727 7.27252 52.7276C8.32742 53.7825 9.75816 54.3751 11.25 54.3751H16.875V65.6251H11.25C9.75816 65.6251 8.32742 66.2178 7.27252 67.2726C6.21763 68.3275 5.625 69.7583 5.625 71.2501C5.625 72.742 6.21763 74.1727 7.27252 75.2276C8.32742 76.2825 9.75816 76.8751 11.25 76.8751H16.875V93.7501C16.875 96.2365 17.8627 98.6211 19.6209 100.379C21.379 102.137 23.7636 103.125 26.25 103.125H43.125V108.75C43.125 110.242 43.7176 111.673 44.7725 112.728C45.8274 113.782 47.2582 114.375 48.75 114.375C50.2418 114.375 51.6726 113.782 52.7275 112.728C53.7824 111.673 54.375 110.242 54.375 108.75V103.125H65.625V108.75C65.625 110.242 66.2176 111.673 67.2725 112.728C68.3274 113.782 69.7582 114.375 71.25 114.375C72.7418 114.375 74.1726 113.782 75.2275 112.728C76.2824 111.673 76.875 110.242 76.875 108.75V103.125H93.75C96.2364 103.125 98.621 102.137 100.379 100.379C102.137 98.6211 103.125 96.2365 103.125 93.7501V76.8751H108.75C110.242 76.8751 111.673 76.2825 112.727 75.2276C113.782 74.1727 114.375 72.742 114.375 71.2501C114.375 69.7583 113.782 68.3275 112.727 67.2726C111.673 66.2178 110.242 65.6251 108.75 65.6251ZM91.875 91.8751H28.125V28.1251H91.875V91.8751Z" fill="#A0B2C8"/>
</g>
<g filter="url(#filter1_i_2192_658)">
<path d="M80.12 43H43.8592C41.3902 43 39.3887 45.0015 39.3887 47.4705V55.2938H80.12V43Z" fill="black"/>
<path fill-rule="evenodd" clip-rule="evenodd" d="M79.9958 43.1242H43.8592C41.4588 43.1242 39.5129 45.0701 39.5129 47.4705V55.1697H79.9958V43.1242ZM80.12 43V55.2938H39.3887V47.4705C39.3887 45.0015 41.3902 43 43.8592 43H80.12Z" fill="black"/>
<path d="M79.9958 43.1242L79.9956 55.2939H67.8259V43.1243L79.9958 43.1242ZM80.12 43L67.7017 43.0001V55.4181H80.1198L80.12 43Z" fill="black"/>
<path fill-rule="evenodd" clip-rule="evenodd" d="M79.9958 43.1242L79.9956 43.2484L79.9958 43.1242ZM79.9956 43.2484V55.2939V43.2484ZM79.9956 55.2939H79.8714H79.9956ZM67.8259 43.1243V55.2939H79.8714M80.12 43L80.1198 55.4181H67.7017V43.0001L80.12 43Z" fill="black"/>
<path d="M39.3887 70.6926C59.8164 70.6926 59.8164 49.2094 80.1199 49.2094L39.3887 70.6926Z" fill="black"/>
<path fill-rule="evenodd" clip-rule="evenodd" d="M64.1111 64.4293C59.0187 69.8034 52.2926 76.9016 39.3887 76.9016V64.4836C46.7464 64.4836 50.2281 61.0241 55.2948 55.6793C55.3757 55.594 55.457 55.5082 55.5387 55.4219C60.6069 50.0721 67.3063 43 80.12 43L80.1198 55.4181C72.8365 55.4181 69.3922 58.8584 64.307 64.2227C64.2419 64.2913 64.1767 64.3602 64.1111 64.4293Z" fill="black"/>
<path d="M67.702 69.4513C67.702 66.708 69.9259 64.4841 72.6692 64.4841H75.1529C77.8962 64.4841 80.1201 66.708 80.1201 69.4513V71.9349C80.1201 74.6782 77.8962 76.9021 75.1529 76.9021H68.1987C67.9244 76.9021 67.702 76.6797 67.702 76.4054V69.4513Z" fill="black"/>
<path fill-rule="evenodd" clip-rule="evenodd" d="M75.1529 64.6083H72.6692C69.9945 64.6083 67.8262 66.7766 67.8262 69.4513V76.4054C67.8262 76.6111 67.993 76.7779 68.1987 76.7779H75.1529C77.8276 76.7779 79.9959 74.6096 79.9959 71.9349V69.4513C79.9959 66.7766 77.8276 64.6083 75.1529 64.6083ZM72.6692 64.4841C69.9259 64.4841 67.702 66.708 67.702 69.4513V76.4054C67.702 76.6797 67.9244 76.9021 68.1987 76.9021H75.1529C77.8962 76.9021 80.1201 74.6782 80.1201 71.9349V69.4513C80.1201 66.708 77.8962 64.4841 75.1529 64.4841H72.6692Z" fill="black"/>
</g>
<defs>
<filter id="filter0_i_2192_658" x="5.625" y="3.68666" width="108.75" height="110.688" filterUnits="userSpaceOnUse" color-interpolation-filters="sRGB">
<feFlood flood-opacity="0" result="BackgroundImageFix"/>
<feBlend mode="normal" in="SourceGraphic" in2="BackgroundImageFix" result="shape"/>
<feColorMatrix in="SourceAlpha" type="matrix" values="0 0 0 0 0 0 0 0 0 0 0 0 0 0 0 0 0 0 127 0" result="hardAlpha"/>
<feOffset dy="-1.93846"/>
<feGaussianBlur stdDeviation="2.90769"/>
<feComposite in2="hardAlpha" operator="arithmetic" k2="-1" k3="1"/>
<feColorMatrix type="matrix" values="0 0 0 0 1 0 0 0 0 0.973186 0 0 0 0 0.913281 0 0 0 1 0"/>
<feBlend mode="normal" in2="shape" result="effect1_innerShadow_2192_658"/>
</filter>
<filter id="filter1_i_2192_658" x="39.3887" y="41.0615" width="40.7314" height="35.8406" filterUnits="userSpaceOnUse" color-interpolation-filters="sRGB">
<feFlood flood-opacity="0" result="BackgroundImageFix"/>
<feBlend mode="normal" in="SourceGraphic" in2="BackgroundImageFix" result="shape"/>
<feColorMatrix in="SourceAlpha" type="matrix" values="0 0 0 0 0 0 0 0 0 0 0 0 0 0 0 0 0 0 127 0" result="hardAlpha"/>
<feOffset dy="-1.93846"/>
<feGaussianBlur stdDeviation="2.90769"/>
<feComposite in2="hardAlpha" operator="arithmetic" k2="-1" k3="1"/>
<feColorMatrix type="matrix" values="0 0 0 0 1 0 0 0 0 0.973186 0 0 0 0 0.913281 0 0 0 1 0"/>
<feBlend mode="normal" in2="shape" result="effect1_innerShadow_2192_658"/>
</filter>
</defs>
</svg>
