<?xml version="1.0" encoding="iso-8859-1"?>
<!-- Generator: Adobe Illustrator 19.0.0, SVG Export Plug-In . SVG Version: 6.00 Build 0)  -->
<svg version="1.1" id="Capa_1" xmlns="http://www.w3.org/2000/svg" xmlns:xlink="http://www.w3.org/1999/xlink" x="0px" y="0px"
	 viewBox="0 0 512 512" style="enable-background:new 0 0 512 512;" xml:space="preserve">
<g>
	<g>
		<path d="M411.975,392.877c-1.307-2.432-3.835-3.958-6.596-3.983l-110.306-0.995c-2.994-0.068-5.746,1.729-6.975,4.474
			c-1.229,2.745-0.715,5.957,1.307,8.183l19.894,21.886l-8.164,4.507c-45.443,25.1-100.474,21.93-142.5-7.587l125.375-125.375
			c2.955-2.955,2.955-7.747,0-10.701c-2.955-2.956-7.747-2.955-10.701,0L141.764,414.829c-1.523,1.523-2.325,3.621-2.205,5.77
			c0.119,2.15,1.149,4.147,2.83,5.491c23.131,18.49,50.983,29.631,80.547,32.218c29.777,2.607,59.345-3.658,85.514-18.11
			l16.546-9.135c2.026-1.119,3.43-3.104,3.808-5.387c0.378-2.283-0.309-4.615-1.866-6.327l-14.689-16.16l79.213,0.714
			l-41.432,63.895l-4.902-18.913c-0.619-2.384-2.357-4.319-4.663-5.185c-2.306-0.867-4.889-0.558-6.924,0.829
			c-35.092,23.907-74.084,39.876-115.893,47.462c-41.805,7.575-83.925,6.309-125.194-3.758l-55.229-13.475l-13.475-55.228
			C3.551,336.732,19.48,248.859,67.455,178.442c1.387-2.035,1.696-4.618,0.829-6.924c-0.867-2.306-2.801-4.044-5.185-4.663
			l-18.914-4.902l63.896-41.432l0.714,79.213l-16.16-14.69c-1.713-1.557-4.046-2.244-6.327-1.866
			c-2.284,0.378-4.268,1.782-5.387,3.808l-9.134,16.545c-7.271,13.165-12.503,27.277-15.552,41.943
			c-0.851,4.092,1.778,8.098,5.869,8.95c4.094,0.852,8.098-1.777,8.95-5.869c2.739-13.182,7.443-25.869,13.983-37.707l4.506-8.163
			l21.887,19.895c2.227,2.023,5.44,2.535,8.183,1.307c2.744-1.229,4.501-3.967,4.474-6.975l-0.996-110.306
			c-0.024-2.761-1.552-5.289-3.983-6.597c-2.432-1.307-5.383-1.187-7.701,0.316l-89.887,58.288
			c-2.518,1.633-3.833,4.599-3.353,7.561c0.481,2.962,2.667,5.361,5.571,6.114l25.34,6.569
			C3.291,251.228-11.321,339.633,9.048,423.117l14.565,59.698c0.67,2.744,2.813,4.889,5.558,5.558l59.698,14.565
			c24.758,6.04,49.799,9.064,74.913,9.063c18.85,0,37.745-1.705,56.569-5.116c40.393-7.328,78.28-22.106,112.779-43.973
			l6.567,25.336c0.754,2.905,3.152,5.09,6.113,5.571c2.961,0.479,5.928-0.835,7.561-3.353l58.288-89.887
			C413.161,398.261,413.282,395.31,411.975,392.877z"/>
	</g>
</g>
<g>
	<g>
		<path d="M228.699,227.977c-2.954-2.955-7.746-2.955-10.701-0.001l-125.37,125.37c-16.043-22.921-24.651-50.543-24.383-78.679
			c0.04-4.179-3.316-7.6-7.495-7.639c-4.156-0.081-7.599,3.316-7.639,7.495c-0.329,34.452,11.314,68.215,32.783,95.074
			c1.345,1.682,3.342,2.711,5.491,2.83c0.14,0.008,0.28,0.012,0.421,0.012c2.001,0,3.928-0.794,5.351-2.217l131.543-131.543
			C231.654,235.723,231.654,230.932,228.699,227.977z"/>
	</g>
</g>
<g>
	<g>
		<path d="M454.798,57.188c-9.136-9.136-21.284-14.168-34.205-14.168c-12.921,0-25.068,5.032-34.205,14.168
			c-9.136,9.136-14.168,21.284-14.168,34.205c0,12.921,5.032,25.068,14.168,34.205c9.136,9.136,21.285,14.168,34.205,14.168
			c12.921,0,25.068-5.032,34.205-14.168c9.136-9.136,14.168-21.285,14.168-34.205C468.967,78.471,463.935,66.323,454.798,57.188z
			 M444.096,114.895c-6.278,6.278-14.625,9.735-23.503,9.735c-8.878,0-17.226-3.457-23.504-9.735s-9.735-14.625-9.735-23.504
			c0-8.878,3.457-17.226,9.735-23.503s14.625-9.735,23.504-9.735c8.878,0,17.226,3.457,23.503,9.735
			c6.278,6.278,9.735,14.625,9.735,23.503C453.831,100.27,450.374,108.617,444.096,114.895z"/>
	</g>
</g>
<g>
	<g>
		<path d="M437.778,292.766c-9.701-11.771-19.697-23.556-29.71-35.027c-2.747-3.148-7.528-3.473-10.678-0.724
			c-3.149,2.748-3.473,7.529-0.724,10.678c8.419,9.645,16.825,19.512,25.05,29.407l-39.521,39.522
			c-74.964-62.328-144.501-131.864-206.829-206.829l39.522-39.521c57.922,48.158,112.774,100.754,163.108,156.409
			c2.803,3.1,7.589,3.341,10.688,0.537c3.1-2.803,3.34-7.589,0.537-10.688C336.86,178.632,279.663,124.021,219.219,74.208
			c-3.009-2.479-7.408-2.268-10.164,0.488l-49.263,49.263c-2.757,2.756-2.967,7.156-0.488,10.164
			c65.52,79.504,139.054,153.038,218.557,218.558c1.404,1.156,3.111,1.727,4.811,1.727c1.945,0,3.883-0.747,5.353-2.217
			l49.263-49.263C440.045,300.173,440.256,295.774,437.778,292.766z"/>
	</g>
</g>
<g>
	<g>
		<path d="M485.219,26.768C467.958,9.506,445.006,0,420.593,0c-24.413,0-47.363,9.506-64.624,26.768
			c-22.922,22.921-31.885,55.952-23.937,87.174l-18.957,18.957c-2.955,2.955-2.955,7.747,0,10.701c2.955,2.955,7.747,2.955,10.701,0
			l22.089-22.089c1.983-1.983,2.707-4.9,1.881-7.581c-8.364-27.127-1.112-56.426,18.925-76.463
			c14.402-14.401,33.552-22.333,53.923-22.333c20.37,0,39.52,7.932,53.923,22.334c29.733,29.733,29.733,78.112,0,107.845
			c-20.037,20.037-49.334,27.288-76.463,18.925c-2.681-0.827-5.597-0.103-7.581,1.881l-22.089,22.089
			c-2.955,2.955-2.955,7.747,0,10.701c1.477,1.477,3.414,2.217,5.351,2.217s3.874-0.739,5.351-2.217l18.957-18.957
			c31.224,7.947,64.253-1.016,87.175-23.937C520.852,120.382,520.852,62.401,485.219,26.768z"/>
	</g>
</g>
<g>
	<g>
		<path d="M251.382,260.604c-2.955-2.955-7.747-2.955-10.701,0L97.462,403.821c-2.955,2.955-2.955,7.747,0,10.702
			c1.477,1.477,3.414,2.217,5.351,2.217c1.936,0,3.874-0.739,5.351-2.217l143.219-143.218
			C254.337,268.35,254.337,263.558,251.382,260.604z"/>
	</g>
</g>
<g>
	<g>
		<path d="M87.48,424.506c-2.955-2.956-7.747-2.956-10.702-0.001l-24.603,24.603c-2.955,2.955-2.955,7.747,0,10.701
			c1.477,1.477,3.414,2.217,5.351,2.217s3.874-0.739,5.351-2.217l24.604-24.602C90.435,432.252,90.435,427.46,87.48,424.506z"/>
	</g>
</g>
<g>
</g>
<g>
</g>
<g>
</g>
<g>
</g>
<g>
</g>
<g>
</g>
<g>
</g>
<g>
</g>
<g>
</g>
<g>
</g>
<g>
</g>
<g>
</g>
<g>
</g>
<g>
</g>
<g>
</g>
</svg>
